# xmcd
#
# Track frame offsets:
#	150
#	27872
#	69122
#	104550
#	143147
#	181367
#	214577
#	259487
#
# Disc length: 3924 seconds
#
# Revision: 2
# Processed by: cddbd v1.5.2PL0 Copyright (c) Steve Scherf et al.
# Submitted via: audiograbber 1.83.01
#
DISCID=710f5208
DTITLE=P.U.L.S.E. - Amsterdam Groove
DYEAR=1988
DGENRE=Jazz
TTITLE0=P.U.L.S.E. - This Is Jazz
TTITLE1=P.U.L.S.E. - Rising Up
TTITLE2=P.U.L.S.E. - Shadow Dreams
TTITLE3=P.U.L.S.E. - Meet My Bassman
TTITLE4=P.U.L.S.E. - Strange Blue
TTITLE5=P.U.L.S.E. - Extensions
TTITLE6=P.U.L.S.E. - City Lights
TTITLE7=P.U.L.S.E. - To You My Love
EXTD=
EXTT0=
EXTT1=
EXTT2=
EXTT3=
EXTT4=
EXTT5=
EXTT6=
EXTT7=
PLAYORDER=
